Coordinates
version=1
nRows=26
nColumns=24
inDegrees=yes

Units are S.I. units (second, meters, Newtons, ...)
Angles are in degrees.

endheader
time	pelvis_tilt	pelvis_list	pelvis_rotation	pelvis_tx	pelvis_ty	pelvis_tz	hip_flexion_r	hip_adduction_r	hip_rotation_r	knee_angle_r	ankle_angle_r	subtalar_angle_r	mtp_angle_r	hip_flexion_l	hip_adduction_l	hip_rotation_l	knee_angle_l	ankle_angle_l	subtalar_angle_l	mtp_angle_l	lumbar_extension	lumbar_bending	lumbar_rotation
      0.89200000	     -2.53382495	     -3.12568586	     -1.36066396	     -0.16956045	      1.05250990	      0.31934039	     -4.96546557	      7.98981961	      1.11727564	    -15.60880169	     10.17564921	    -13.13162580	      1.98807342	     23.05331541	     -1.37770729	     -5.60668285	      0.74204493	      5.14444922	      7.36829882	      4.13621759	      4.11461128	      6.91480428	      0.62836161
      0.89616667	     -2.50697413	     -3.18453019	     -1.28619810	     -0.16357524	      1.05202200	      0.31903093	     -4.99101301	      7.99887006	      0.77145250	    -16.30440383	     10.13807344	    -12.52621159	      1.99358179	     23.05021064	     -1.36563850	     -5.25190845	      0.31393118	      5.21342810	      7.50811697	      4.04740262	      4.02165973	      6.97137762	      0.66106419
      0.90033333	     -2.44404255	     -3.17569788	     -1.38891862	     -0.15740854	      1.05172128	      0.31912361	     -5.05483646	      7.93041311	      0.70439658	    -17.04023355	     10.08059657	    -12.47071647	      1.99544666	     22.93382288	     -1.36873059	     -5.10374709	     -0.06363921	      5.17925186	      7.53899403	      4.03566591	      4.09530207	      6.92958400	      0.67240702
      0.90450000	     -2.36934843	     -3.17469266	     -1.33384113	     -0.15126128	      1.05138845	      0.31863936	     -5.07941654	      7.83176893	      0.24849092	    -17.85242037	     10.07398240	    -11.51642229	      2.03527452	     22.81875996	     -1.27961880	     -4.64826131	     -0.47971838	      5.10875860	      7.32556165	      3.89308641	      4.02582019	      7.00633003	      0.73798008
      0.90866667	     -2.29161433	     -3.17701491	     -1.41470922	     -0.14515086	      1.05113125	      0.31873623	     -5.09374962	      7.77101897	      0.14326187	    -18.70260801	      9.98071287	    -11.47942151	      2.03931360	     22.69400474	     -1.28978088	     -4.54513747	     -0.93797396	      5.05174489	      7.31686906	      3.88315778	      4.07138509	      6.92940749	      0.75244085
      0.91283333	     -2.24288099	     -3.15217076	     -1.39635386	     -0.13898047	      1.05082653	      0.31823992	     -5.02365814	      7.62563299	     -0.31651484	    -19.62503167	      9.69024083	    -10.62170619	      2.10614178	     22.58465811	     -1.18208823	     -4.17483400	     -1.37315438	      4.76843404	      6.85566950	      3.77334269	      3.95556469	      6.97573861	      0.82377553
      0.91700000	     -2.18834965	     -3.12021295	     -1.44800054	     -0.13281896	      1.05057641	      0.31813990	     -4.93438379	      7.49787336	     -0.59978208	    -20.61733697	      9.55170490	    -10.48180410	      2.12685444	     22.47310635	     -1.12890156	     -4.11999982	     -1.86001876	      4.66368018	      6.71945859	      3.74880380	      3.88442131	      6.86882165	      0.84679710
      0.92116667	     -2.07574241	     -3.07218936	     -1.47376896	     -0.12662288	      1.05044762	      0.31771714	     -4.87537482	      7.30898396	     -0.96241589	    -21.64987738	      9.21388748	     -9.60756485	      2.24657931	     22.23858361	     -1.01666510	     -3.69453133	     -2.23009781	      4.23519057	      6.01128695	      3.64843960	      3.88346378	      6.87772661	      0.93649241
      0.92533333	     -2.00527937	     -3.01856129	     -1.50661955	     -0.12045828	      1.05027227	      0.31739468	     -4.72878977	      7.11999887	     -1.32404167	    -22.76023257	      8.91595261	     -9.09683112	      2.38723795	     22.06769750	     -0.91164064	     -3.45877588	     -2.65019752	      3.89230839	      5.38584444	      3.56290510	      3.83072424	      6.79618469	      1.00307231
      0.92950000	     -1.92926927	     -2.94740402	     -1.54952495	     -0.11426788	      1.05013830	      0.31709521	     -4.55431519	      6.90357068	     -1.67840249	    -23.92748740	      8.52556964	     -8.63772200	      2.53306245	     21.87665358	     -0.79617297	     -3.27494361	     -3.05588722	      3.55132290	      4.90954186	      3.50012212	      3.80373282	      6.71508622	      1.05617089
      0.93366667	     -1.86108051	     -2.85731517	     -1.59841627	     -0.10805648	      1.05002132	      0.31689543	     -4.33603546	      6.67122570	     -2.02798003	    -25.16871039	      8.25102418	     -8.49816267	      2.57064705	     21.70142521	     -0.67347068	     -3.27649993	     -3.49482172	      3.40760847	      4.78925245	      3.48801380	      3.72456048	      6.60615606	      1.07172551
      0.93783333	     -1.76672613	     -2.80034286	     -1.61902934	     -0.10200306	      1.04994403	      0.31661797	     -4.10064157	      6.46432677	     -2.36650239	    -26.43666511	      7.50094834	     -7.87064702	      2.68143583	     21.50800606	     -0.57475365	     -3.18791416	     -3.92369546	      2.94640513	      4.26234066	      3.45662969	      3.68075905	      6.43812545	      1.13233237
      0.94200000	     -1.68941993	     -2.67382706	     -1.67938543	     -0.09582812	      1.04989933	      0.31622100	     -3.80966895	      6.14813226	     -2.73518418	    -27.79253150	      6.89306666	     -7.35215995	      2.83005343	     21.28215340	     -0.39817659	     -3.01140454	     -4.27457863	      2.49538892	      3.58515894	      3.42745991	      3.62510252	      6.28893993	      1.19563560
      0.94616667	     -1.59284963	     -2.50058053	     -1.79733594	     -0.08955740	      1.04994697	      0.31576383	     -3.51008691	      5.75133234	     -3.03238211	    -29.20166035	      6.24946835	     -6.83287566	      3.08886263	     20.97164643	     -0.17822842	     -2.65993830	     -4.51346422	      1.96351648	      2.65704290	      3.39539858	      3.68283797	      6.23056813	      1.26238983
      0.95033333	     -1.51337253	     -2.35133061	     -1.81768922	     -0.08342075	      1.04992383	      0.31543677	     -3.15106238	      5.41442426	     -3.41421107	    -30.68694426	      5.90159054	     -6.71242879	      3.14068110	     20.77320411	      0.01627554	     -2.66615730	     -4.92900354	      1.82841247	      2.54884075	      3.39203726	      3.55567611	      6.07452655	      1.27473635
      0.95450000	     -1.44099070	     -2.23617722	     -1.87637700	     -0.07749816	      1.04990956	      0.31515819	     -2.73460174	      5.10917939	     -3.66776723	    -32.17863108	      4.82137055	     -6.16435743	      3.29447227	     20.58807098	      0.15720805	     -2.58573952	     -5.33440951	      1.39554884	      1.95435349	      3.37851180	      3.49471426	      5.77314644	      1.32455265
      0.95866667	     -1.36776646	     -2.00551016	     -1.99781416	     -0.07122884	      1.04998878	      0.31458088	     -2.30499158	      4.61624200	     -3.94466781	    -33.72461433	      3.88416300	     -5.76807210	      3.62185960	     20.30298513	      0.44407652	     -2.30554212	     -5.57313561	      0.84831157	      0.91445153	      3.36434374	      3.62489221	      5.70386057	      1.37489752
      0.96283333	     -1.29489236	     -1.81317343	     -2.05551327	     -0.06522770	      1.05002029	      0.31412870	     -1.82790322	      4.19272963	     -4.21945659	    -35.32477649	      3.02561335	     -5.46304937	      3.91359950	     20.09387563	      0.68297310	     -2.16963164	     -5.94283732	      0.53175930	      0.33412306	      3.36219248	      3.54830747	      5.45477890	      1.40484885
      0.96700000	     -1.29440477	     -1.61662032	     -2.08892443	     -0.05927090	      1.04994318	      0.31352702	     -1.23746783	      3.75163304	     -4.51203242	    -36.97484762	      2.19356153	     -5.32047344	      4.59392634	     19.96328326	      0.94401677	     -1.88465493	     -6.29880744	      0.04769589	     -0.63684713	      3.36801186	      3.56478569	      5.25951685	      1.44267213
      0.97116667	     -1.18298762	     -1.38641866	     -2.17636381	     -0.05327677	      1.05008677	      0.31320736	     -0.75603180	      3.28902017	     -4.66897361	    -38.60196909	      1.18746670	     -4.99120541	      4.83242185	     19.71715399	      1.19678868	     -1.92866148	     -6.69108224	     -0.04291819	     -0.78953210	      3.37566916	      3.51046898	      4.97200015	      1.43973063
      0.97533333	     -1.11062749	     -1.18248687	     -2.23937515	     -0.04751871	      1.05014901	      0.31288239	     -0.18529205	      2.86537425	     -4.80130275	    -40.28893388	      0.33878544	     -4.80775951	      4.97064422	     19.54173552	      1.42128489	     -1.87118363	     -7.11807335	     -0.16010026	     -0.95603247	      3.37872236	      3.33223387	      4.63094218	      1.44421607
      0.97950000	     -1.09562334	     -0.90630791	     -2.35824226	     -0.04149298	      1.05019534	      0.31238366	      0.45468711	      2.33186975	     -4.89494435	    -41.94530434	     -0.93218610	     -4.80989540	      5.46207148	     19.36761866	      1.73189918	     -1.75251364	     -7.43793074	     -0.48740738	     -1.66366312	      3.38283694	      3.51235019	      4.47353153	      1.44080552
      0.98366667	     -1.00949061	     -0.68332342	     -2.37613438	     -0.03580084	      1.05029080	      0.31199617	      1.04605741	      1.89095336	     -5.00698440	    -43.63411538	     -1.72580793	     -4.62623782	      5.59594808	     19.19635384	      1.98768576	     -1.75284845	     -7.89854781	     -0.50176053	     -1.77650347	      3.38771595	      3.31301254	      4.07095778	      1.44437576
      0.98783333	     -0.93076491	     -0.41888660	     -2.47297261	     -0.02999901	      1.05043570	      0.31162669	      1.66277542	      1.39616556	     -5.01741658	    -45.30223546	     -2.74121531	     -4.49100105	      5.73744923	     18.98916905	      2.26951550	     -1.76880325	     -8.27763929	     -0.52890975	     -1.96692320	      3.39058288	      3.24110071	      3.76063447	      1.42634297
      0.99200000	     -0.87729477	     -0.13542745	     -2.54242682	     -0.02411742	      1.05057300	      0.31121966	      2.30535072	      0.88894593	     -5.01723831	    -46.91391744	     -3.90948914	     -4.50027239	      5.95591479	     18.81605222	      2.58101524	     -1.89729042	     -8.68669238	     -0.57361895	     -2.31127778	      3.39093520	      3.33421582	      3.47802126	      1.40467735
      0.99616667	     -0.85043999	      0.12819955	     -2.59982880	     -0.01841668	      1.05064796	      0.31082051	      3.00822864	      0.41702829	     -4.98758868	    -48.54856244	     -4.82467070	     -4.57791795	      6.16619362	     18.67865621	      2.86735493	     -1.91740315	     -9.08837101	     -0.58640869	     -2.51787081	      3.39196232	      3.30955774	      3.14940363	      1.37988645
